# xmcd CD database file
# Generated: Wed Jan 19 19:58:38 2005 by KSCD
# 
# Track frame offsets:
#       150
#       14264
#       25311
#       41858
#       55313
#       70224
#       88139
#       99901
#       114010
#       133162
#       145467
#       159549
#       178616
#       191128
#
# Disc length: 2736 seconds
#
# Revision: 2
# Processed by: cddbd v1.5.1PL0 Copyright (c) Steve Scherf et al.
# Submitted via: Kscd 1.3.3
#
DISCID=c40aae0e
DTITLE=Norah Jones - Come Away With Me
DYEAR=2002
DGENRE=
TTITLE0=Don't Know Why
TTITLE1=Seven Years
TTITLE2=Cold Cold Heart
TTITLE3=Feelin' The Same Way
TTITLE4=Come Away With Me
TTITLE5=Shoot The Moon
TTITLE6=Turn Me On
TTITLE7=Lonestar
TTITLE8=I've Got To See You Again
TTITLE9=Painter Song
TTITLE10=One Flight Down
TTITLE11=Nightingale
TTITLE12=The Long Day Is Over
TTITLE13=The Nearnest Of You
EXTD=YEAR: 2002
EXTT0=
EXTT1=
EXTT2=
EXTT3=
EXTT4=
EXTT5=
EXTT6=
EXTT7=
EXTT8=
EXTT9=
EXTT10=
EXTT11=
EXTT12=
EXTT13=
PLAYORDER=
